<svg xmlns="http://www.w3.org/2000/svg" viewBox="0 0 344.88 176.33"><title>logo</title><path d="M525.88,330.24A35.16,35.16,0,1,0,561,365.4,35.16,35.16,0,0,0,525.88,330.24Zm0,57.16a22,22,0,1,1,22-22A22,22,0,0,1,525.88,387.4Z" transform="translate(-451.47 -224.22)" fill="#626c76"/><path d="M761.19,365.4a35.22,35.22,0,0,1,33.38-35.11,1.74,1.74,0,0,1,1.78,1.71v9.71a1.63,1.63,0,0,1-1.59,1.73,22,22,0,0,0-20.42,22v32.41a1.68,1.68,0,0,1-1.69,1.69h-9.73a1.76,1.76,0,0,1-1.73-1.69V365.4Z" transform="translate(-451.47 -224.22)" fill="#626c76"/><path d="M451.47,365.4a35.23,35.23,0,0,1,33.38-35.11,1.74,1.74,0,0,1,1.78,1.71v9.71a1.63,1.63,0,0,1-1.59,1.73,22,22,0,0,0-20.42,22v32.41a1.68,1.68,0,0,1-1.68,1.69h-9.73a1.76,1.76,0,0,1-1.73-1.69V365.4Z" transform="translate(-451.47 -224.22)" fill="#626c76"/><path d="M674.84,359.62a29.33,29.33,0,0,0-51.48-19.26,0.79,0.79,0,0,1-1.25,0,29.35,29.35,0,0,0-51.53,19.24v38.19a1.66,1.66,0,0,0,1.73,1.69H582a1.61,1.61,0,0,0,1.69-1.69V359.62a16.23,16.23,0,1,1,32.46,0v38.19a1.64,1.64,0,0,0,1.69,1.69h9.73a1.58,1.58,0,0,0,1.68-1.69V359.62a16.23,16.23,0,1,1,32.46,0v38.19a1.59,1.59,0,0,0,1.68,1.69h9.73a1.59,1.59,0,0,0,1.69-1.69V359.62Z" transform="translate(-451.47 -224.22)" fill="#626c76"/><path d="M718.55,330.24a35.16,35.16,0,0,0,0,70.31,35.54,35.54,0,0,0,31.14-18.83,1.37,1.37,0,0,0-1.2-2H736.34a2.32,2.32,0,0,0-1.78.77,21.72,21.72,0,0,1-16,6.93c-8.42,0-16.79-6.3-20.2-13.29a1.32,1.32,0,0,1,1.25-1.93h52a1.73,1.73,0,0,0,1.68-1.45,29.43,29.43,0,0,0,.41-5.34A35.15,35.15,0,0,0,718.55,330.24ZM737.69,359H699.4a1.31,1.31,0,0,1-1.25-1.88,22,22,0,0,1,40.81,0A1.37,1.37,0,0,1,737.69,359Z" transform="translate(-451.47 -224.22)" fill="#626c76"/><path d="M530.06,316.82a8.13,8.13,0,0,1,16.25,0,8.13,8.13,0,0,1-16.25,0" transform="translate(-451.47 -224.22)" fill="#626c76"/><path d="M505.45,316.82a8.13,8.13,0,0,1,16.25,0,8.13,8.13,0,0,1-16.25,0" transform="translate(-451.47 -224.22)" fill="#626c76"/><path d="M575.76,309.7a1.12,1.12,0,0,0,.6,2h4.51a3,3,0,0,0,1.54-.41c78.13-40.6,141.19,41.62,213.52-15.47a1.12,1.12,0,0,0-.71-2H790.4a3.23,3.23,0,0,0-1.83.54C727.11,334,662.21,252.54,575.76,309.7Z" transform="translate(-451.47 -224.22)" fill="#d50c2d"/><circle cx="211.13" cy="7.8" r="5.59" fill="#d50c2d"/><path d="M747.67,258.81a23,23,0,1,0-17,22.21l6.65-1.8a0.92,0.92,0,0,1,1.14.85,1.1,1.1,0,0,0,1.1,1.07h7.06a1.1,1.1,0,0,0,1.1-1.13v-21.2Zm-10.08,10.74-9.36,2.52a13.36,13.36,0,0,1-3.56.47,13.72,13.72,0,1,1,13.73-13.74v9.68A1,1,0,0,1,737.59,269.56Z" transform="translate(-451.47 -224.22)" fill="#626c76"/><path d="M698.36,272.52a13.69,13.69,0,0,1-12.6-13.8V247.09a1.07,1.07,0,0,1,1.1-1.1h9.2a1.07,1.07,0,0,0,1.1-1.13v-7a1.12,1.12,0,0,0-1.1-1.13h-9.2a1.07,1.07,0,0,1-1.1-1.1v-8a1.09,1.09,0,0,0-1.1-1.13h-7.15a1.12,1.12,0,0,0-1.1,1.13v31.14a23,23,0,0,0,21.83,23.09,1,1,0,0,0,1.17-1.1v-7.06A1,1,0,0,0,698.36,272.52Z" transform="translate(-451.47 -224.22)" fill="#626c76"/><path d="M667.24,280a1.18,1.18,0,0,1-1.1,1.13h-7.06A1.14,1.14,0,0,1,658,280V246.21a1.16,1.16,0,0,1,1.1-1.13h7.06a1.15,1.15,0,0,1,1.1,1.13V280Z" transform="translate(-451.47 -224.22)" fill="#626c76"/><path d="M598.2,235.81a22.16,22.16,0,0,0-3.94.36l-8.41,1.47a1.1,1.1,0,0,1-1.32-1.1V225.32a1.11,1.11,0,0,0-1.13-1.1h-7a1.12,1.12,0,0,0-1.1,1.1v33.49A23,23,0,1,0,598.2,235.81Zm0,36.73a13.71,13.71,0,0,1-13.67-13.73V248.23a1.13,1.13,0,0,1,.91-1.1l10.43-1.83a12.19,12.19,0,0,1,2.33-.19A13.72,13.72,0,1,1,598.2,272.54Z" transform="translate(-451.47 -224.22)" fill="#626c76"/><path d="M627,258.81a23.05,23.05,0,0,1,21.85-23,1.13,1.13,0,0,1,1.17,1.11V244a1.06,1.06,0,0,1-1,1.14,13.72,13.72,0,0,0-12.7,13.68V280a1.13,1.13,0,0,1-1.1,1.13h-7.06A1.16,1.16,0,0,1,627,280V258.81Z" transform="translate(-451.47 -224.22)" fill="#626c76"/><path d="M780.5,258.57a1.08,1.08,0,0,1,0-1.32L794.67,238a0.81,0.81,0,0,0-.66-1.32h-9.48a1,1,0,0,0-.91.44L774.86,249a0.87,0.87,0,0,1-1.42,0l-8.76-11.88a1.05,1.05,0,0,0-.88-0.44h-9.51a0.81,0.81,0,0,0-.66,1.32l14.18,19.22a1.11,1.11,0,0,1,0,1.32L752.14,279.8a0.83,0.83,0,0,0,.66,1.32h9.51a1,1,0,0,0,.88-0.44l10.24-13.86a0.88,0.88,0,0,1,1.42,0l10.24,13.86a1,1,0,0,0,.91.44l9.48,0a0.82,0.82,0,0,0,.66-1.34Z" transform="translate(-451.47 -224.22)" fill="#626c76"/></svg>